# xmcd CD database file
#
# Track frame offsets:
#	150
#	33989
#	66900
#	96556
#	128933
#	159222
#	188743
#	221249
#	253458
#	281581
#
# Disc length: 4169 seconds
#
# Revision: 0
# Processed by: cddbd v1.5.2PL0 Copyright (c) Steve Scherf et al.
# Submitted via: CDex 1.51
#
DISCID=9b10470a
DTITLE=Bina &Pranva Mehta - Moonlight Taj
DYEAR=2007
DGENRE=New Age
TTITLE0=Allah Hi Allah
TTITLE1=Aansuon Ke Saath
TTITLE2=Vaade Pe 
TTITLE3=Kabhee Yoon Bhi
TTITLE4=Kabhee Kisiko
TTITLE5=Savere
TTITLE6=Muddat Mein
TTITLE7=Chupke Se
TTITLE8=Koi KaanTaa
TTITLE9=Patthar
EXTD=YEAR: 2007
EXTT0=
EXTT1=
EXTT2=
EXTT3=
EXTT4=
EXTT5=
EXTT6=
EXTT7=
EXTT8=
EXTT9=
PLAYORDER=
